<svg xmlns="http://www.w3.org/2000/svg" version="1.1" xmlns:xlink="http://www.w3.org/1999/xlink" xmlns:svgjs="http://svgjs.dev/svgjs" width="1500" height="1500" viewBox="0 0 1500 1500"><rect width="1500" height="1500" fill="#000000"></rect><g transform="matrix(0.6666666666666666,0,0,0.6666666666666666,249.2168565388062,252.73630229419712)"><svg viewBox="0 0 248 247" data-background-color="#ffffff" preserveAspectRatio="xMidYMid meet" height="1493" width="1500" xmlns="http://www.w3.org/2000/svg" xmlns:xlink="http://www.w3.org/1999/xlink"><g id="tight-bounds" transform="matrix(1,0,0,1,0.19421957837607806,-0.09999999999999432)"><svg viewBox="0 0 247.61156084324787 247.2" height="247.2" width="247.61156084324787"><g><svg viewBox="0 0 397.4975999999999 396.83691014009236" height="247.2" width="247.61156084324787"><g><rect width="397.4975999999999" height="12.154590429539697" x="0" y="218.08412065929645" fill="#ffffff" opacity="1" stroke-width="0" stroke="transparent" fill-opacity="1" class="rect-qz-0" data-fill-palette-color="primary" rx="1%" id="qz-0" data-palette-color="#8dbdff"></rect></g><g transform="matrix(1,0,0,1,0.9887999999999693,262.05701064260495)"><svg viewBox="0 0 395.52 134.7798994974874" height="134.7798994974874" width="395.52"><g id="textblocktransform"><svg viewBox="0 0 395.52 134.7798994974874" height="134.7798994974874" width="395.52" id="textblock"><g><svg viewBox="0 0 395.52 134.7798994974874" height="134.7798994974874" width="395.52"><g transform="matrix(1,0,0,1,0,0)"><svg width="395.52" viewBox="1.55 -40.7 159.17999999999998 54.25" height="134.7798994974874" data-palette-color="#8dbdff"><g class="wordmark-text-0" data-fill-palette-color="primary" id="text-0"><path d="M5.05-7.7L5.05-7.7Q4.35-6 4.35-3.9L4.35-3.9Q4.35-2.5 4.98-1.68 5.6-0.85 6.75-0.85L6.75-0.85Q11.3-0.85 15-9.4L15-9.4Q15.35-10.2 15.85-10.1L15.85-10.1Q16.05-10.05 16.05-9.85 16.05-9.65 14.93-7.23 13.8-4.8 12.65-3.3L12.65-3.3Q10.1 0.2 6.35 0.2L6.35 0.2Q4.35 0.2 2.95-1.1 1.55-2.4 1.55-4.65 1.55-6.9 2.63-9.43 3.7-11.95 5.55-14.13 7.4-16.3 9.8-17.3L9.8-17.3Q10.95-17.8 12-17.8 13.05-17.8 13.95-17.2L13.95-17.2Q14.8-16.5 14.8-15.65L14.8-15.65Q14.8-12.65 11.2-9.9L11.2-9.9Q10.1-9.05 8.1-8.38 6.1-7.7 5.05-7.7ZM13.45-15.7L13.45-15.7Q13.45-16.7 12.65-16.7L12.65-16.7Q11.25-16.7 8.4-13.25L8.4-13.25Q6.7-11.15 5.4-8.55L5.4-8.55Q6.25-8.55 7.88-9.15 9.5-9.75 10.7-10.75L10.7-10.75Q13.45-13.1 13.45-15.7ZM57.3-33.95L57.3-33.95Q57.3-35.7 55.7-37.25L55.7-37.25Q53.4-39.45 49.35-39.45L49.35-39.45Q45.8-39.45 41.5-37.9L41.5-37.9Q39.25-37.1 37.6-35.7L37.6-35.7Q35.05-33.5 35.05-31.3L35.05-31.3Q35.05-28.35 38.8-26L38.8-26Q40.2-25.15 44.42-23.23 48.65-21.3 50.6-20.1L50.6-20.1Q53.55-18.3 54.67-16.25 55.8-14.2 55.8-12.45L55.8-12.45Q55.8-9.95 54.15-7.35L54.15-7.35Q51.25-2.7 45.65 0.65L45.65 0.65Q39.2 4.55 30.1 4.55L30.1 4.55Q21.35 4.55 16.2 0.1L16.2 0.1Q12.2-3.3 12.2-8.65L12.2-8.65Q12.2-12.05 14.67-16.15 17.15-20.25 20.75-21.95L20.75-21.95Q21.5-22.25 21.87-22.15 22.25-22.05 21.25-21.2L21.25-21.2Q19.1-19.5 17.8-17.45L17.8-17.45Q15-13.05 15-7.9L15-7.9Q15-4.5 16.9-1.95L16.9-1.95Q20.3 2.6 28.7 3.2L28.7 3.2Q29.65 3.3 31.52 3.3 33.4 3.3 36.62 2.63 39.85 1.95 42.85 0.4L42.85 0.4Q49.3-3 51.2-8.4L51.2-8.4Q51.8-10 51.8-11.5L51.8-11.5Q51.8-14.9 48.75-17.5L48.75-17.5Q47.1-18.8 42.02-20.98 36.95-23.15 35.2-24.3L35.2-24.3Q31.35-26.9 31.35-30.45L31.35-30.45Q31.35-33.55 34.8-36.5L34.8-36.5Q39.75-40.7 48.8-40.7L48.8-40.7Q53.05-40.7 55.72-39.43 58.4-38.15 59-35.6L59-35.6Q59.1-35.1 59.1-34.6L59.1-34.6Q59.1-32.65 57.3-31.1L57.3-31.1Q56.05-30.1 53.95-29.5L53.95-29.5Q53.05-29.25 52.95-29.7L52.95-29.7Q52.85-30.35 54.2-30.5L54.2-30.5Q56.6-30.8 57.15-32.9L57.15-32.9Q57.3-33.45 57.3-33.95ZM69.09-2.25L69.09-2.25Q69.09-0.85 70.09-0.85L70.09-0.85Q72.45-0.85 76.75-9.65L76.75-9.65Q77.09-10.35 77.37-10.2 77.65-10.05 77.65-9.8 77.65-9.55 77.07-8.38 76.5-7.2 75.92-6.13 75.34-5.05 74.25-3.3L74.25-3.3Q71.95 0.2 69.34 0.2L69.34 0.2Q67.65 0.2 66.65-1.2L66.65-1.2Q66.2-1.85 66.2-2.98 66.2-4.1 66.7-5.7 67.2-7.3 69.45-10.9L69.45-10.9Q70-11.8 70-12.33 70-12.85 69.15-12.85 68.3-12.85 65.9-10.6L65.9-10.6Q62.3-7.3 58.9-0.7L58.9-0.7Q58.55 0.05 57.05 0.05L57.05 0.05Q55.7 0.15 55.35 0.35L55.35 0.35Q64.84-19.4 69.09-27.2L69.09-27.2Q70.05-28.95 70.77-29.65 71.5-30.35 72.5-30.35L72.5-30.35Q72.75-30.35 73.55-30.23 74.34-30.1 74.75-30.15L74.75-30.15Q73.25-28.6 69.37-21.58 65.5-14.55 61.95-7.3L61.95-7.3Q64.3-10.25 66.17-11.9 68.05-13.55 70.75-15.03 73.45-16.5 74.7-16.5L74.7-16.5Q75-16.5 75.25-16.4L75.25-16.4Q69.09-5.6 69.09-2.25ZM85.89-17.5L85.89-17.5Q89.54-17.5 89.54-12.9L89.54-12.9Q89.54-10.8 88.44-8.4L88.44-8.4Q87.04-5.15 84.24-2.5L84.24-2.5Q84.89-1.25 86.59-1.25L86.59-1.25Q87.94-1.25 89.14-2.6L89.14-2.6Q90.64-4.15 91.29-5.33 91.94-6.5 92.24-7.05 92.54-7.6 93.02-8.63 93.49-9.65 93.59-9.88 93.69-10.1 93.94-10.1L93.94-10.1Q94.44-10.15 94.44-9.75L94.44-9.75Q94.44-9.6 94.34-9.4L94.34-9.4 94.04-8.7Q93.74-8 93.59-7.7 93.44-7.4 93.07-6.63 92.69-5.85 92.42-5.4 92.14-4.95 91.67-4.2 91.19-3.45 90.82-3 90.44-2.55 89.89-2 89.34-1.45 88.84-1.15L88.84-1.15Q87.59-0.4 86.49-0.4L86.49-0.4Q84.44-0.4 83.29-1.7L83.29-1.7Q80.99 0 79.04 0L79.04 0Q75.39 0 75.39-4.6L75.39-4.6Q75.39-6.7 76.49-9.1L76.49-9.1Q77.99-12.6 80.72-15.05 83.44-17.5 85.89-17.5ZM86.44-15.95L86.44-15.95Q85.09-15.95 83.24-14.15 81.39-12.35 79.94-9.25L79.94-9.25Q78.19-5.65 78.19-3.35 78.19-1.05 79.94-1.05L79.94-1.05Q81.19-1.05 82.74-2.4L82.74-2.4Q81.94-3.55 81.94-4.85L81.94-4.85Q82.04-7 83.69-7L83.69-7Q84.34-7 84.77-6.55 85.19-6.1 85.19-5.73 85.19-5.35 85.09-4.95L85.09-4.95Q85.94-6.2 87.04-8.5L87.04-8.5Q88.29-11.05 88.29-13.5 88.29-15.95 86.44-15.95ZM108.54-13.6L108.54-13.6Q108.54-11.4 107.39-8.75 106.24-6.1 104.22-3.65 102.19-1.2 99.29-0.3L99.29-0.3Q98.19 0 96.77 0 95.34 0 93.64-0.9L93.64-0.9 88.89 10.95Q88.14 12.55 87.49 13.05 86.84 13.55 86.24 13.55 85.64 13.55 85.52 13.55 85.39 13.55 84.62 13.4 83.84 13.25 83.44 13.3L83.44 13.3Q84.54 12.25 89.02 3.33 93.49-5.6 94.09-8.7L94.09-8.7Q93.54-7.9 93.04-7.85L93.04-7.85Q92.74-7.85 93.04-8.43 93.34-9 94.04-10.65L94.04-10.65Q94.94-12.8 94.94-14.63 94.94-16.45 94.24-16.75L94.24-16.75Q97.24-17.25 97.74-17.23 98.24-17.2 98.37-16.8 98.49-16.4 98.49-15.9L98.49-15.9Q98.49-12.85 97.09-9.1L97.09-9.1 98.09-10.7Q99.89-13.6 100.72-14.45 101.54-15.3 102.49-16.2L102.49-16.2Q103.94-17.6 105.29-17.6L105.29-17.6Q105.69-17.6 106.04-17.5L106.04-17.5Q108.54-16.85 108.54-13.6ZM106.14-14.1L106.14-14.1Q106.14-14.9 105.82-15.58 105.49-16.25 104.79-16.25L104.79-16.25Q103.04-16.25 100.72-13 98.39-9.75 94.04-1.65L94.04-1.65Q94.69-1 95.84-1 96.99-1 99.09-2.75L99.09-2.75Q102.44-5.55 104.69-9.7L104.69-9.7Q106.14-12.4 106.14-14.1ZM119.24-2.25L119.24-2.25Q119.24-0.85 120.24-0.85L120.24-0.85Q122.59-0.85 126.89-9.65L126.89-9.65Q127.24-10.35 127.51-10.2 127.79-10.05 127.79-9.8 127.79-9.55 127.21-8.38 126.64-7.2 126.06-6.13 125.49-5.05 124.39-3.3L124.39-3.3Q122.09 0.2 119.49 0.2L119.49 0.2Q117.79 0.2 116.79-1.2L116.79-1.2Q116.34-1.85 116.34-2.98 116.34-4.1 116.84-5.7 117.34-7.3 119.59-10.9L119.59-10.9Q120.14-11.8 120.14-12.33 120.14-12.85 119.29-12.85 118.44-12.85 116.04-10.6L116.04-10.6Q112.44-7.3 109.04-0.7L109.04-0.7Q108.69 0.05 107.19 0.05L107.19 0.05Q105.84 0.15 105.49 0.35L105.49 0.35Q114.99-19.4 119.24-27.2L119.24-27.2Q120.19-28.95 120.91-29.65 121.64-30.35 122.64-30.35L122.64-30.35Q122.89-30.35 123.69-30.23 124.49-30.1 124.89-30.15L124.89-30.15Q123.39-28.6 119.51-21.58 115.64-14.55 112.09-7.3L112.09-7.3Q114.44-10.25 116.31-11.9 118.19-13.55 120.89-15.03 123.59-16.5 124.84-16.5L124.84-16.5Q125.14-16.5 125.39-16.4L125.39-16.4Q119.24-5.6 119.24-2.25ZM125.19-2.9L125.19-2.9Q125.19-5.05 127.04-8.1L127.04-8.1Q126.24-8.1 126.59-8.9L126.59-8.9 127.49-10.65Q129.19-13.9 130.28-16.15L130.28-16.15Q130.78-17.2 132.24-17.2L132.24-17.2 135.28-17.2Q133.49-15.9 131.66-12.18 129.84-8.45 128.84-6.33 127.84-4.2 127.84-3.1 127.84-2 128.21-1.55 128.59-1.1 129.24-1.1L129.24-1.1Q130.19-1.1 131.89-3.1L131.89-3.1Q134.53-6.2 139.34-16.15L139.34-16.15Q139.89-17.2 141.28-17.2L141.28-17.2 143.99-17.2Q142.89-16.35 142.26-15.45 141.64-14.55 140.53-12.25L140.53-12.25Q137.53-6.25 137.19-4.3L137.19-4.3Q137.03-3.6 137.03-3L137.03-3Q137.03-1.4 138.14-1.3L138.14-1.3Q140.84-1.3 144.79-9.65L144.79-9.65Q145.09-10.35 145.39-10.2 145.69-10.05 145.69-9.8 145.69-9.55 145.24-8.65 144.79-7.75 144.36-6.9 143.94-6.05 143.06-4.58 142.19-3.1 141.44-2.25L141.44-2.25Q139.49-0.05 137.61-0.05 135.74-0.05 135.03-1.7L135.03-1.7Q134.74-2.45 134.74-3.6 134.74-4.75 135.24-6.45L135.24-6.45Q131.59-0.05 128.49-0.05L128.49-0.05Q125.79-0.05 125.34-2.3L125.34-2.3Q125.19-2.55 125.19-2.9ZM157.33-13.6L157.33-13.6Q157.33-16.45 154.98-16.45L154.98-16.45Q154.78-16.45 154.58-16.45L154.58-16.45Q153.68-16.35 153.53-16.8 153.38-17.25 153.98-17.4 154.58-17.55 155.28-17.45L155.28-17.45Q157.88-17.05 158.83-15L158.83-15Q159.48-13.75 159.48-12.55L159.48-12.55Q159.48-8.25 156.33-4.1L156.33-4.1Q153.18 0.1 148.18 0.1L148.18 0.1Q146.33 0.1 145.18-0.95 144.03-2 144.03-3.75L144.03-3.75Q144.03-5.85 146.43-10.85L146.43-10.85Q142.33-3.1 141.13-1.95L141.13-1.95Q140.63-1.5 140.63-2.25L140.63-2.25Q140.63-2.4 140.73-2.6L140.73-2.6Q142.48-4.9 147.71-15.1 152.93-25.3 155.03-28.45L155.03-28.45Q156.73-30.9 158.33-30.9L158.33-30.9Q158.33-30.9 158.38-30.9L158.38-30.9 158.63-30.9Q158.68-30.9 159.51-30.75 160.33-30.6 160.73-30.7L160.73-30.7Q159.08-28.95 155.53-23.7L155.53-23.7Q146.73-10.65 146.73-4.2L146.73-4.2Q146.73-1.55 148.43-1.2L148.43-1.2Q148.58-1.15 148.78-1.15L148.78-1.15Q150.33-1.15 152.66-3.93 154.98-6.7 156.48-10.25L156.48-10.25Q157.33-12.1 157.33-13.6Z" fill="#ffffff" data-fill-palette-color="primary"></path></g></svg></g></svg></g></svg></g></svg></g><g transform="matrix(1,0,0,1,130.33525617764977,0)"><svg viewBox="0 0 136.82708764470038 186.2658211055276" height="186.2658211055276" width="136.82708764470038"><g><svg xmlns="http://www.w3.org/2000/svg" xmlns:xlink="http://www.w3.org/1999/xlink" version="1.1" x="0" y="0" viewBox="13.758 0.088 73.51600000000002 100.07900000000001" enable-background="new 0 0 100 100" xml:space="preserve" width="136.82708764470038" height="186.2658211055276" class="icon-icon-0" data-fill-palette-color="accent" id="icon-0"><g fill="#8dbdff" data-fill-palette-color="accent"><polygon fill="#ffffff" points="54.079,34.286 46.144,34.286 46.144,31.243 21.692,31.243 21.692,34.286 13.758,34.286    13.758,38.365 54.079,38.365  " data-fill-palette-color="accent"></polygon><path fill="#ffffff" d="M71.872 77.169c-1.07 0.594-2.295 0.918-3.555 0.918-1.261 0-2.483-0.324-3.555-0.918-1.07 0.594-2.294 0.918-3.554 0.918s-2.484-0.324-3.555-0.918c-1.069 0.594-2.294 0.918-3.553 0.918-1.262 0-2.485-0.324-3.555-0.918-1.071 0.594-2.294 0.918-3.553 0.918-1.261 0-2.485-0.324-3.556-0.918-1.07 0.594-2.294 0.918-3.554 0.918s-2.483-0.324-3.554-0.918c-1.07 0.594-2.294 0.918-3.555 0.918v5.138 4.731 0.521 7.63 4.06h5.333V82.413H48.77v17.753h33.765V78.087c-1.259 0-2.483-0.324-3.555-0.918-1.069 0.594-2.294 0.918-3.554 0.918C74.165 78.087 72.94 77.763 71.872 77.169zM77.203 93.755H54.102V82.413h23.102V93.755z" data-fill-palette-color="accent"></path><path fill="#ffffff" d="M49.975 65.646h-7.66-4.566-4.975l-4.739 6.411h0c0 0.008 0.002 0.018 0.002 0.025 0.001 0.157 0.017 0.312 0.041 0.466 0.007 0.044 0.016 0.09 0.024 0.135 0.026 0.13 0.059 0.259 0.1 0.383 0.009 0.031 0.018 0.063 0.029 0.094 0.057 0.161 0.124 0.319 0.205 0.472 0.002 0.005 0.006 0.011 0.008 0.015 0.081 0.15 0.173 0.296 0.275 0.435 0.012 0.016 0.022 0.033 0.034 0.047 0.447 0.595 1.086 1.093 1.874 1.43 0.008 0.004 0.013 0.01 0.021 0.013 0.64 0.268 1.36 0.421 2.125 0.421 1.418 0 2.687-0.52 3.555-1.34 0.868 0.82 2.137 1.34 3.554 1.34 1.418 0 2.687-0.52 3.554-1.34 0.868 0.82 2.137 1.34 3.556 1.34 1.417 0 2.684-0.52 3.553-1.34 0.869 0.82 2.136 1.34 3.555 1.34 1.417 0 2.684-0.52 3.553-1.34 0.869 0.82 2.137 1.34 3.555 1.34 1.419 0 2.687-0.52 3.554-1.34 0.867 0.82 2.135 1.34 3.555 1.34 1.419 0 2.685-0.52 3.555-1.34 0.868 0.82 2.136 1.34 3.554 1.34 1.419 0 2.687-0.52 3.554-1.34 0.869 0.82 2.137 1.34 3.555 1.34 2.615 0 4.731-1.76 4.738-3.934h0.001l-4.739-6.411H54.079 49.975z" data-fill-palette-color="accent"></path><rect x="13.758" y="88.943" fill="#ffffff" width="17.832" height="7.163" data-fill-palette-color="accent"></rect><path fill="#ffffff" d="M30.087 76.436c-0.467-0.199-0.896-0.45-1.281-0.739-0.018-0.014-0.035-0.026-0.052-0.04-0.371-0.286-0.696-0.61-0.969-0.965-0.023-0.028-0.044-0.061-0.066-0.09-0.112-0.153-0.215-0.312-0.306-0.474-0.018-0.03-0.035-0.058-0.051-0.089-0.1-0.187-0.186-0.38-0.257-0.575-0.013-0.038-0.022-0.074-0.035-0.112-0.054-0.161-0.098-0.327-0.131-0.496-0.011-0.057-0.022-0.11-0.031-0.166-0.033-0.206-0.055-0.414-0.057-0.63 0-0.182 0.061-0.361 0.177-0.518l3.06-4.142v-3.713h7.662v0.973h4.566v-0.973h7.66v0.973h4.104V39.817H13.758V87.49H31.59v-4.266h-1.502V76.436zM42.315 42.735h7.66v7.888h-7.66V42.735zM42.315 53.045h7.66v7.89h-7.66V53.045zM30.087 42.735h7.662v7.888h-7.662V42.735zM30.087 53.045h7.662v7.89h-7.662V53.045zM25.743 83.225h-7.663v-7.889h7.663V83.225zM25.743 71.577h-7.663v-7.89h7.663V71.577zM25.743 60.935h-7.663v-7.89h7.663V60.935zM25.743 50.624h-7.663v-7.888h7.663V50.624z" data-fill-palette-color="accent"></path><path fill="#ffffff" d="M55.265 34.286v4.545c0 0.09-0.021 0.176-0.048 0.259 0.026 0.083 0.048 0.17 0.048 0.26v25.31h18.603V29.763h-1.156v-9.205h-1.608v-4.766h-0.81v-2.359h-1.905v-1.785h-2.191V10.86h-0.799l-0.406-2.444-0.344-0.244-0.286-1.743h-0.345L62.51 0.088h-0.967l-1.505 6.341h-0.346l-0.299 1.743-0.346 0.244-0.406 2.444h-0.796v0.789h-2.193v1.785h-1.905v2.359h-0.798v4.766h-1.621v9.205h-1.156V33.3h3.907C54.732 33.3 55.265 33.741 55.265 34.286z" data-fill-palette-color="accent"></path></g></svg></g></svg></g><g></g></svg></g><defs></defs></svg><rect width="247.61156084324787" height="247.2" fill="none" stroke="none" visibility="hidden"></rect></g></svg></g></svg>